<svg width="566.93" height="340.16" version="1.1" viewBox="0 0 566.93 340.16" xmlns="http://www.w3.org/2000/svg"><g transform="matrix(1.3333 0 0 -1.3333 0 340.16)"><g transform="scale(.1)" fill="#fff"><path d="m1230.9 1310c-11.18 123.09-87.65 177.18-184.63 177.18-100.71 0-179.04-63.41-195.84-177.18zm-522.21-82.06c0 190.24 119.36 363.68 335.73 363.68 193.95 0 324.5-119.36 324.5-350.62v-31.71h-525.93c1.855-136.14 80.184-225.67 208.87-225.67 115.63 0 175.31 61.548 180.93 132.42h132.39c-16.77-139.88-124.95-236.86-317.05-236.86-220.08 0-339.44 156.66-339.44 348.76"/><path d="m1391.2 1095.6h132.43c5.59-76.47 67.14-111.91 179.04-111.91 106.31 0 154.8 44.758 154.8 106.3 0 55.96-31.71 82.06-136.15 93.26l-93.25 9.32c-145.48 14.92-216.34 72.75-216.34 188.37 0 141.74 111.9 210.75 268.56 210.75 160.39 0 277.9-59.68 287.22-201.42h-126.83c-9.32 70.87-65.27 98.84-162.25 98.84s-147.33-37.3-147.33-95.11c0-54.09 33.56-76.46 119.35-85.79l93.25-9.32c167.86-16.8 238.72-72.74 238.72-203.29 0-138.02-111.89-216.35-287.2-216.35-182.78 0-300.28 78.329-304.02 216.35"/><path d="m2058.8 1571.2h128.69v-675.14h-128.69zm-5.61 298.4h139.89v-143.6h-139.89v143.6"/><path d="m2782.4 1310c-11.2 123.09-87.65 177.18-184.63 177.18-100.71 0-179.04-63.41-195.84-177.18zm-522.21-82.06c0 190.24 119.36 363.68 335.72 363.68 193.96 0 324.5-119.36 324.5-350.62v-31.71h-525.93c1.87-136.14 80.2-225.67 208.88-225.67 115.63 0 175.31 61.548 180.9 132.42h132.42c-16.77-139.88-124.95-236.86-317.05-236.86-220.08 0-339.44 156.66-339.44 348.76"/><path d="m3414.6 1103v95.13h-136.13c-91.39 0-188.37-1.88-188.37-108.19 0-80.18 55.95-106.3 124.95-106.3 98.84 0 173.46 59.678 199.55 119.36zm-460.65-14.91c0 186.5 160.39 212.61 320.79 210.75h139.86v42.89c0 100.71-48.48 145.47-143.6 145.47-67.15 0-143.61-20.51-158.52-108.17h-132.42c18.65 156.67 149.2 212.61 287.21 212.61 160.39 0 276.02-82.06 276.02-242.46v-453.19h-119.36l-5.59 87.652h-5.59c-35.44-59.684-108.19-104.44-201.43-104.44-152.93 0-257.37 67.141-257.37 208.89"/><path d="m721.26 685.79h-10.469v93.172h10.469v-93.172"/><path d="m759.84 782.88 72.488-76.129v72.211h10.469v-97.352l-72.48 75.993v-71.813h-10.477v97.09"/><path d="m969 732.59v-2.371c0-13.27-2.363-21.52-8.644-29.328-8.379-10.493-21.649-16.77-35.489-16.77-26.109 0-47.761 21.789-47.761 48.059 0 26.949 21.785 48.308 49.168 48.308 9.777 0 20.109-3.476 27.941-9.476 3.613-2.66 6.277-5.301 10.742-10.762l-7.676-6.988c-3.632 4.75-5.734 7.117-8.8 9.508-6.297 5.019-14.383 7.949-22.207 7.949-21.649 0-38.692-17.047-38.692-38.699 0-20.942 17.18-38.122 37.852-38.122 11.172 0 23.047 6.571 28.625 15.942 2.39 3.769 3.359 7.379 3.769 13.109h-27.648v9.641h38.82"/><path d="m1024.4 786.36-6.01 4.469 16.61 18.172 9.37-6.289zm-11.32-17.039v-27.789h36.73v-9.64h-36.73v-36.461h37.7v-9.641h-48.17v93.172h48.17v-9.641h-37.7"/><path d="m1084.4 782.88 72.48-76.129v72.211h10.48v-97.352l-72.49 75.993v-71.813h-10.47v97.09"/><path d="m1216.4 685.79h-10.47v93.172h10.47v-93.172"/><path d="m1265.4 769.32v-27.789h36.73v-9.64h-36.73v-36.461h37.71v-9.641h-48.18v93.172h48.18v-9.641h-37.71"/><path d="m1347.2 721.85c0-9.641 0.7-13.84 3.07-17.883 3.64-5.867 11.61-10.071 19.71-10.071 7.95 0 15.91 4.204 19.54 10.071 2.38 4.043 3.08 8.242 3.08 17.883v57.109h10.47v-59.91c0-10.071-1.67-16.34-6.13-22.071-6.15-7.949-16.35-12.859-26.96-12.859-10.77 0-21.1 4.91-27.11 12.859-4.47 5.731-6.14 11.86-6.14 22.071v59.91h10.47v-57.109"/><path d="m1458.9 735.79c13.41 0 20.52 6.012 20.52 17.473 0 5.316-2.65 10.476-6.84 12.988-3.35 2.102-7.54 3.07-14.11 3.07h-6.14v-33.531zm36.86-50h-12.71l-28.06 40.789h-2.66v-40.789h-10.47v93.172h15.08c10.62 0 17.04-1.402 22.34-5.02 6.3-4.332 10.34-12.3 10.34-20.679 0-14.532-9.08-24.442-23.46-25.84l29.6-41.633"/><path d="m1536.8 715.55c0-3.77-3.09-6.852-6.99-6.852-3.77 0-6.84 3.082-6.84 6.852 0 3.91 3.07 6.988 6.84 6.988 3.9 0 6.99-3.078 6.99-6.988"/><path d="m1582.7 769.32v-27.789h36.73v-9.64h-36.73v-36.461h37.7v-9.641h-48.17v93.172h48.17v-9.641h-37.7"/><path d="m1664.4 715.55c0-3.77-3.09-6.852-7-6.852-3.77 0-6.84 3.082-6.84 6.852 0 3.91 3.07 6.988 6.84 6.988 3.91 0 7-3.078 7-6.988"/><path d="m1741.3 760.67c-4.74 7.547-8.8 10.047-16.05 10.047-8.67 0-15.37-6.149-15.37-14.379 0-4.039 1.96-7.399 5.86-10.07 2.24-1.372 4.61-2.782 7.27-3.899l2.94-1.402 2.93-1.25 2.92-1.258c14.96-6.57 21.1-13.973 21.1-25.563 0-16.058-12.84-28.777-29.34-28.777-14.94 0-25.29 8.68-28.9 24.027l10.05 2.793c1.12-4.742 1.96-6.972 3.77-9.5 3.36-4.601 9.07-7.543 14.94-7.543 10.77 0 19 7.973 19 18.313 0 5.711-2.52 10.039-7.68 13.269-2.37 1.532-5.02 2.911-8.09 4.18l-2.8 1.399-2.79 1.261-2.81 1.25c-13.4 6-18.84 12.571-18.84 23.039 0 13.563 11.31 23.879 26.11 23.879 10.48 0 18.45-4.867 24.02-14.508l-8.24-5.308"/><path d="m1855.3 695.43c11.45 0 19.69 2.672 26.66 8.539 8.25 6.832 12.71 17.043 12.71 28.351 0 11.442-4.6 21.782-12.55 28.481-7 5.871-15.37 8.519-26.82 8.519h-9.08v-73.89zm-19.55 83.531h19.12c15.08 0 25.29-3.211 34.22-10.742 10.48-8.68 16.08-21.239 16.08-36.039 0-14.391-5.74-26.821-16.35-35.61-9.23-7.699-19-10.781-34.08-10.781h-18.99v93.172"/><path d="m1953.6 780.22-13.96-31.418-6.7 2.64 11.58 32.137 9.08-3.359"/><path d="m1998.7 721.85c0-9.641 0.71-13.84 3.09-17.883 3.62-5.867 11.59-10.071 19.69-10.071 7.97 0 15.91 4.204 19.55 10.071 2.37 4.043 3.07 8.242 3.07 17.883v57.109h10.47v-59.91c0-10.071-1.67-16.34-6.14-22.071-6.13-7.949-16.34-12.859-26.95-12.859-10.75 0-21.09 4.91-27.09 12.859-4.47 5.731-6.16 11.86-6.16 22.071v59.91h10.47v-57.109"/><path d="m2093.3 782.88 72.5-76.129v72.211h10.48v-97.352l-72.5 75.993v-71.813h-10.48v97.09"/><path d="m2264.2 782.88 72.5-76.129v72.211h10.48v-97.352l-72.5 75.993v-71.813h-10.48v97.09"/><path d="m2396.3 721.85c0-9.641 0.7-13.84 3.08-17.883 3.63-5.867 11.6-10.071 19.7-10.071 7.96 0 15.91 4.204 19.55 10.071 2.37 4.043 3.07 8.242 3.07 17.883v57.109h10.47v-59.91c0-10.071-1.67-16.34-6.13-22.071-6.15-7.949-16.35-12.859-26.96-12.859-10.77 0-21.09 4.91-27.09 12.859-4.47 5.731-6.16 11.86-6.16 22.071v59.91h10.47v-57.109"/><path d="m2502.9 784.12 35.75-78.621 36.62 78.762 14.37-98.473h-10.6l-8.68 64.82-31.71-68.718-31.28 68.718-9.21-64.82h-10.62l15.36 98.332"/><path d="m2647.7 786.36-6.03 4.469 16.64 18.172 9.35-6.289zm-11.33-17.039v-27.789h36.75v-9.64h-36.75v-36.461h37.71v-9.641h-48.18v93.172h48.18v-9.641h-37.71"/><path d="m2724.7 735.79c13.41 0 20.54 6.012 20.54 17.473 0 5.316-2.67 10.476-6.85 12.988-3.36 2.102-7.55 3.07-14.1 3.07h-6.16v-33.531zm36.87-50h-12.7l-28.08 40.789h-2.66v-40.789h-10.47v93.172h15.1c10.6 0 17.02-1.402 22.34-5.02 6.28-4.332 10.32-12.3 10.32-20.679 0-14.532-9.08-24.442-23.46-25.84l29.61-41.633"/><path d="m2802.7 685.79h-10.48v93.172h10.48v-93.172"/><path d="m2912.3 706.48c7.4 8.231 10.18 15.211 10.18 25.84 0 21.352-16.88 38.399-37.99 38.399-21.22 0-37.99-16.891-37.99-38.539 0-11.602 4.33-21.379 12.71-28.641 7.13-6.141 16.06-9.641 25.01-9.641 7.68 0 14.8 2.243 20.95 6.711l-22.48 22.629h13.54zm7.95-21.652-7.82 8.383c-8.24-5.871-18.02-9.09-28.07-9.09-26.68 0-48.33 21.52-48.33 48.059 0 26.672 21.79 48.308 48.61 48.308 26.53 0 48.33-21.91 48.33-48.738 0-12.57-3.78-21.91-13.41-32.68l13.96-14.242h-13.27"/><path d="m2977.1 721.85c0-9.641 0.7-13.84 3.07-17.883 3.63-5.867 11.6-10.071 19.71-10.071 7.96 0 15.91 4.204 19.55 10.071 2.37 4.043 3.06 8.242 3.06 17.883v57.109h10.48v-59.91c0-10.071-1.67-16.34-6.14-22.071-6.14-7.949-16.35-12.859-26.95-12.859-10.77 0-21.09 4.91-27.09 12.859-4.48 5.731-6.17 11.86-6.17 22.071v59.91h10.48v-57.109"/><path d="m3082.1 769.32v-27.789h36.75v-9.64h-36.75v-36.461h37.73v-9.641h-48.2v93.172h48.2v-9.641h-37.73"/><path d="m3213.2 721.85c0-9.641 0.7-13.84 3.09-17.883 3.61-5.867 11.58-10.071 19.69-10.071 7.96 0 15.92 4.204 19.55 10.071 2.36 4.043 3.07 8.242 3.07 17.883v57.109h10.47v-59.91c0-10.071-1.68-16.34-6.14-22.071-6.14-7.949-16.35-12.859-26.95-12.859-10.75 0-21.09 4.91-27.09 12.859-4.47 5.731-6.16 11.86-6.16 22.071v59.91h10.47v-57.109"/><path d="m3330.5 685.79h-10.48v83.531h-22.5v9.641h55.6v-9.641h-22.62v-83.531"/><path d="m3392.1 685.79h-10.47v93.172h10.47v-93.172"/><path d="m3441.2 695.43h25.58v-9.641h-36.04v93.172h10.46v-83.531"/><path d="m3505.6 769.32v-27.789h36.75v-9.64h-36.75v-36.461h37.71v-9.641h-48.18v93.172h48.18v-9.641h-37.71"/></g></g></svg>
